# xmcd
#
# Track frame offsets: 
#        150
#        11747
#        22984
#        34047
#        45126
#        55699
#        66605
#        79796
#
# Disc length: 1217 seconds
#
# Revision: 0
# Processed by: cddbd v1.5.2PL0 Copyright (c) Steve Scherf et al.
# Submitted via: ExactAudioCopy v0.95b2
#
DISCID=5904bf08
DTITLE=The Kent Boys - A Horse No Man Could Ride
DYEAR=2006
DGENRE=Country
TTITLE0=A Horse No Man Could Ride
TTITLE1=No More Worries
TTITLE2=Too Old To Skate
TTITLE3=Toe Waggin'
TTITLE4=Oh My My
TTITLE5=A.D.D.
TTITLE6=Codeine
TTITLE7=Get It Outta Yer Head
EXTD=
EXTT0=
EXTT1=
EXTT2=
EXTT3=
EXTT4=
EXTT5=
EXTT6=
EXTT7=
PLAYORDER=
